<svg id="SvgjsSvg1086" width="591" height="476" xmlns="http://www.w3.org/2000/svg" version="1.1" xmlns:xlink="http://www.w3.org/1999/xlink" xmlns:svgjs="http://svgjs.com/svgjs"><defs id="SvgjsDefs1087"><marker id="SvgjsMarker1120" markerWidth="16" markerHeight="12" refX="16" refY="6" viewBox="0 0 16 12" orient="auto" markerUnits="userSpaceOnUse" stroke-dasharray="0,0"><path id="SvgjsPath1121" d="M0,2 L14,6 L0,11 L0,2" fill="#323232" stroke="#323232" stroke-width="2"></path></marker><marker id="SvgjsMarker1124" markerWidth="16" markerHeight="12" refX="16" refY="6" viewBox="0 0 16 12" orient="auto" markerUnits="userSpaceOnUse" stroke-dasharray="0,0"><path id="SvgjsPath1125" d="M0,2 L14,6 L0,11 L0,2" fill="#323232" stroke="#323232" stroke-width="2"></path></marker><marker id="SvgjsMarker1128" markerWidth="16" markerHeight="12" refX="16" refY="6" viewBox="0 0 16 12" orient="auto" markerUnits="userSpaceOnUse" stroke-dasharray="0,0"><path id="SvgjsPath1129" d="M0,2 L14,6 L0,11 L0,2" fill="#323232" stroke="#323232" stroke-width="2"></path></marker><marker id="SvgjsMarker1132" markerWidth="16" markerHeight="12" refX="16" refY="6" viewBox="0 0 16 12" orient="auto" markerUnits="userSpaceOnUse" stroke-dasharray="0,0"><path id="SvgjsPath1133" d="M0,2 L14,6 L0,11 L0,2" fill="#323232" stroke="#323232" stroke-width="2"></path></marker><marker id="SvgjsMarker1136" markerWidth="16" markerHeight="12" refX="16" refY="6" viewBox="0 0 16 12" orient="auto" markerUnits="userSpaceOnUse" stroke-dasharray="0,0"><path id="SvgjsPath1137" d="M0,2 L14,6 L0,11 L0,2" fill="#323232" stroke="#323232" stroke-width="2"></path></marker><marker id="SvgjsMarker1140" markerWidth="16" markerHeight="12" refX="16" refY="6" viewBox="0 0 16 12" orient="auto" markerUnits="userSpaceOnUse" stroke-dasharray="0,0"><path id="SvgjsPath1141" d="M0,2 L14,6 L0,11 L0,2" fill="#323232" stroke="#323232" stroke-width="2"></path></marker><marker id="SvgjsMarker1144" markerWidth="16" markerHeight="12" refX="16" refY="6" viewBox="0 0 16 12" orient="auto" markerUnits="userSpaceOnUse" stroke-dasharray="0,0"><path id="SvgjsPath1145" d="M0,2 L14,6 L0,11 L0,2" fill="#323232" stroke="#323232" stroke-width="2"></path></marker><marker id="SvgjsMarker1148" markerWidth="16" markerHeight="12" refX="16" refY="6" viewBox="0 0 16 12" orient="auto" markerUnits="userSpaceOnUse" stroke-dasharray="0,0"><path id="SvgjsPath1149" d="M0,2 L14,6 L0,11 L0,2" fill="#323232" stroke="#323232" stroke-width="2"></path></marker><marker id="SvgjsMarker1152" markerWidth="16" markerHeight="12" refX="16" refY="6" viewBox="0 0 16 12" orient="auto" markerUnits="userSpaceOnUse" stroke-dasharray="0,0"><path id="SvgjsPath1153" d="M0,2 L14,6 L0,11 L0,2" fill="#323232" stroke="#323232" stroke-width="2"></path></marker><marker id="SvgjsMarker1160" markerWidth="16" markerHeight="12" refX="16" refY="6" viewBox="0 0 16 12" orient="auto" markerUnits="userSpaceOnUse" stroke-dasharray="0,0"><path id="SvgjsPath1161" d="M0,2 L14,6 L0,11 L0,2" fill="#323232" stroke="#323232" stroke-width="2"></path></marker></defs><g id="SvgjsG1088" transform="translate(25,37)"><path id="SvgjsPath1089" d="M 0 0L 120 0L 120 46L 0 46Z" stroke="none" fill="none"></path><g id="SvgjsG1090"><text id="SvgjsText1091" font-family="微软雅黑" text-anchor="middle" font-size="21px" width="120px" fill="#323232" font-weight="400" align="middle" anchor="middle" family="微软雅黑" size="21px" weight="400" font-style="" opacity="1" y="4.85" transform="rotate(0)"><tspan id="SvgjsTspan1092" dy="26" x="60"><tspan id="SvgjsTspan1093" style="text-decoration:;">f(4) = 11</tspan></tspan></text></g></g><g id="SvgjsG1094" transform="translate(139.5,126.25)"><path id="SvgjsPath1095" d="M 0 0L 150.5 0L 150.5 43.75L 0 43.75Z" stroke="none" fill="none"></path><g id="SvgjsG1096"><text id="SvgjsText1097" font-family="微软雅黑" text-anchor="middle" font-size="21px" width="151px" fill="#323232" font-weight="400" align="middle" anchor="middle" family="微软雅黑" size="21px" weight="400" font-style="" opacity="1" y="3.7249999999999996" transform="rotate(0)"><tspan id="SvgjsTspan1098" dy="26" x="75.5"><tspan id="SvgjsTspan1099" style="text-decoration:;">f(3) + 4 = 7+4</tspan></tspan></text></g></g><g id="SvgjsG1100" transform="translate(243,213.5)"><path id="SvgjsPath1101" d="M 0 0L 144 0L 144 39.5L 0 39.5Z" stroke="none" fill="none"></path><g id="SvgjsG1102"><text id="SvgjsText1103" font-family="微软雅黑" text-anchor="middle" font-size="21px" width="144px" fill="#323232" font-weight="400" align="middle" anchor="middle" family="微软雅黑" size="21px" weight="400" font-style="" opacity="1" y="1.6" transform="rotate(0)"><tspan id="SvgjsTspan1104" dy="26" x="72"><tspan id="SvgjsTspan1105" style="text-decoration:;">f(2) + 3 = 4+3</tspan></tspan></text></g></g><g id="SvgjsG1106" transform="translate(346.5,290.75)"><path id="SvgjsPath1107" d="M 0 0L 137.5 0L 137.5 44.25L 0 44.25Z" stroke="none" fill="none"></path><g id="SvgjsG1108"><text id="SvgjsText1109" font-family="微软雅黑" text-anchor="middle" font-size="21px" width="138px" fill="#323232" font-weight="400" align="middle" anchor="middle" family="微软雅黑" size="21px" weight="400" font-style="" opacity="1" y="3.9749999999999996" transform="rotate(0)"><tspan id="SvgjsTspan1110" dy="26" x="69"><tspan id="SvgjsTspan1111" style="text-decoration:;">f(1) + 2 = 2+2</tspan></tspan></text></g></g><g id="SvgjsG1112" transform="translate(446,376)"><path id="SvgjsPath1113" d="M 0 0L 120 0L 120 46L 0 46Z" stroke="none" fill="none"></path><g id="SvgjsG1114"><text id="SvgjsText1115" font-family="微软雅黑" text-anchor="middle" font-size="21px" width="120px" fill="#323232" font-weight="400" align="middle" anchor="middle" family="微软雅黑" size="21px" weight="400" font-style="" opacity="1" y="4.85" transform="rotate(0)"><tspan id="SvgjsTspan1116" dy="26" x="60"><tspan id="SvgjsTspan1117" style="text-decoration:;">f(0) + 1 = 2</tspan></tspan></text></g></g><g id="SvgjsG1118"><path id="SvgjsPath1119" d="M67 79L66.5 79L66.5 145L138 145" stroke="#323232" stroke-width="2" fill="none" marker-end="url(#SvgjsMarker1120)"></path></g><g id="SvgjsG1122"><path id="SvgjsPath1123" d="M165 165L164.5 165L164.5 231L236 231" stroke="#323232" stroke-width="2" fill="none" marker-end="url(#SvgjsMarker1124)"></path></g><g id="SvgjsG1126"><path id="SvgjsPath1127" d="M267 249L266.5 249L266.5 315L338 315" stroke="#323232" stroke-width="2" fill="none" marker-end="url(#SvgjsMarker1128)"></path></g><g id="SvgjsG1130"><path id="SvgjsPath1131" d="M368 333L367.5 333L367.5 399L439 399" stroke="#323232" stroke-width="2" fill="none" marker-end="url(#SvgjsMarker1132)"></path></g><g id="SvgjsG1134"><path id="SvgjsPath1135" d="M556 368L555.5 368L555.5 315L501 315" stroke-dasharray="3,3" stroke="#323232" stroke-width="2" fill="none" marker-end="url(#SvgjsMarker1136)"></path></g><g id="SvgjsG1138"><path id="SvgjsPath1139" d="M463 287L462.5 287L462.5 234L408 234" stroke-dasharray="3,3" stroke="#323232" stroke-width="2" fill="none" marker-end="url(#SvgjsMarker1140)"></path></g><g id="SvgjsG1142"><path id="SvgjsPath1143" d="M365 202L364.5 202L364.5 149L310 149" stroke-dasharray="3,3" stroke="#323232" stroke-width="2" fill="none" marker-end="url(#SvgjsMarker1144)"></path></g><g id="SvgjsG1146"><path id="SvgjsPath1147" d="M265 114L264.5 114L264.5 61L210 61" stroke-dasharray="3,3" stroke="#323232" stroke-width="2" fill="none" marker-end="url(#SvgjsMarker1148)"></path></g><g id="SvgjsG1150"><path id="SvgjsPath1151" d="M69 227L341 451" stroke="#323232" stroke-width="2" fill="none" marker-end="url(#SvgjsMarker1152)"></path><rect id="SvgjsRect1154" width="21" height="26" x="194.5" y="326" fill="#ffffff"></rect><text id="SvgjsText1155" font-family="微软雅黑" text-anchor="middle" font-size="21px" width="21px" fill="#323232" font-weight="400" align="top" anchor="middle" family="微软雅黑" size="21px" weight="400" font-style="" opacity="1" y="320.85" transform="rotate(0)"><tspan id="SvgjsTspan1156" dy="26" x="205"><tspan id="SvgjsTspan1157" style="text-decoration:;">①</tspan></tspan></text></g><g id="SvgjsG1158"><path id="SvgjsPath1159" d="M550 239L294 25" stroke-dasharray="3,3" stroke="#323232" stroke-width="2" fill="none" marker-end="url(#SvgjsMarker1160)"></path><rect id="SvgjsRect1162" width="21" height="26" x="411.5" y="119" fill="#ffffff"></rect><text id="SvgjsText1163" font-family="微软雅黑" text-anchor="middle" font-size="21px" width="21px" fill="#323232" font-weight="400" align="top" anchor="middle" family="微软雅黑" size="21px" weight="400" font-style="" opacity="1" y="113.85" transform="rotate(0)"><tspan id="SvgjsTspan1164" dy="26" x="422"><tspan id="SvgjsTspan1165" style="text-decoration:;">②</tspan></tspan></text></g></svg>